HIERARCHY
ROOT Hips
{
	OFFSET 0.000000 0.000000 0.000000 
	CHANNELS 6 Xposition Yposition Zposition Yrotation Zrotation Xrotation 
	JOINT Lumbar
	{
		OFFSET 0.000000 0.000000 0.000000 
		CHANNELS 3 Zrotation Xrotation Yrotation
		JOINT Neck
		{
			OFFSET 0.000000 0.445665 0.000000 
			CHANNELS 3 Zrotation Xrotation Yrotation
			End Site
			{
				OFFSET 0.000000 0.227535 0.000000 
			}
		}
		JOINT RightShoulder
		{
			OFFSET 0.019635 0.377685 0.194865 
			CHANNELS 3 Zrotation Xrotation Yrotation
			JOINT RightElbow
			{
				OFFSET 0.000000 -0.243375 0.000000 
				CHANNELS 2 Zrotation Yrotation
				JOINT RightWrist
				{
					OFFSET 0.000000 -0.264825 0.000000 
					CHANNELS 2 Zrotation Xrotation
					End Site
					{
						OFFSET 0.006600 -0.176220 0.000990 
					}
				}
			}
		}
		JOINT LeftShoulder
		{
			OFFSET 0.019635 0.377685 -0.194865 
			CHANNELS 3 Zrotation Xrotation Yrotation
			JOINT LeftElbow
			{
				OFFSET 0.000000 -0.243375 0.000000 
				CHANNELS 2 Zrotation Yrotation
				JOINT LeftWrist
				{
					OFFSET 0.000000 -0.264825 0.000000 
					CHANNELS 2 Zrotation Xrotation
					End Site
					{
						OFFSET 0.006600 -0.176220 -0.000990 
					}
				}
			}
		}
	}
	JOINT RightHip
	{
		OFFSET 0.052140 -0.069960 0.075570 
		CHANNELS 3 Zrotation Xrotation Yrotation
		JOINT RightKnee
		{
			OFFSET 0.000000 -0.402270 0.000000 
			CHANNELS 1 Zrotation
			JOINT RightAnkle
			{
				OFFSET 0.000000 -0.404085 0.000000 
				CHANNELS 3 Zrotation Xrotation Yrotation
				End Site
				{
					OFFSET 0.204105 -0.089430 0.008415 
				}
			}
		}
	}
	JOINT LeftHip
	{
		OFFSET 0.052140 -0.069960 -0.075570 
		CHANNELS 3 Zrotation Xrotation Yrotation
		JOINT LeftKnee
		{
			OFFSET 0.000000 -0.402270 0.000000 
			CHANNELS 1 Zrotation
			JOINT LeftAnkle
			{
				OFFSET 0.000000 -0.404085 0.000000 
				CHANNELS 3 Zrotation Xrotation Yrotation
				End Site
				{
					OFFSET 0.204105 -0.089430 -0.008415 
				}
			}
		}
	}
}
MOTION
Frames: 14
Frame Time: 0.02
-0.00087 9e-05 -0.00101 165.97041 -31.84599 -3.03394 46.14727 2.92373 -5.2976 -14.50482 -11.23586 -0.10636 -28.77448 -11.56045 -2.3028 41.98507 90.91692 6.44904 -0.01817 -36.35253 9.71141 10.4655 35.16557 -136.19986 20.36713 -5.17915 32.40073 0.35385 -7.50251 -20.51733 -7.88057 -4.17771 -2.89081 33.21708 8.47178 2.64867 -26.4016 -9.41738 5.25341 3.6179
-0.00085 0.0001 -0.00014 166.33532 -31.84694 -2.98221 46.13853 2.89414 -5.31668 -14.31829 -11.18044 -0.10718 -28.75475 -11.60571 -1.974 42.04099 90.92216 6.49208 -0.02378 -35.53863 9.93993 9.40262 35.76722 -131.92076 19.53435 -4.58605 32.36945 0.28938 -7.58323 -20.51953 -7.88945 -4.19007 -2.90029 33.29056 8.44121 2.6876 -26.41674 -9.37966 5.23317 3.6006
-0.00083 0.00012 0.00074 166.69932 -31.84813 -2.93062 46.13002 2.86465 -5.33563 -14.13219 -11.12508 -0.10799 -28.73505 -11.65099 -1.64598 42.09695 90.92741 6.53506 -0.02941 -34.72671 10.16782 8.34244 36.36833 -127.65451 18.70405 -3.99471 32.33858 0.22509 -7.66349 -20.52181 -7.89835 -4.20243 -2.90977 33.36419 8.41066 2.72629 -26.43191 -9.34203 5.21299 3.58335
-0.00081 0.00013 0.00161 167.06314 -31.84914 -2.87905 46.12136 2.83515 -5.35464 -13.94621 -11.06982 -0.10881 -28.71538 -11.69614 -1.31816 42.15274 90.93264 6.57798 -0.03501 -33.91522 10.39564 7.28274 36.96835 -123.38853 17.87382 -3.40343 32.30747 0.16083 -7.74389 -20.52403 -7.90721 -4.21476 -2.91923 33.43753 8.38018 2.76509 -26.44702 -9.30442 5.19281 3.5661
-0.00079 0.00015 0.00248 167.42777 -31.84976 -2.82734 46.11233 2.80556 -5.37382 -13.75987 -11.01454 -0.10962 -28.69569 -11.74122 -0.98964 42.20841 90.93785 6.62093 -0.04058 -33.10199 10.62406 6.22054 37.5684 -119.10985 17.04116 -2.81042 32.27575 0.09639 -7.82493 -20.52613 -7.91605 -4.22706 -2.92868 33.51051 8.3497 2.80413 -26.46205 -9.26673 5.17259 3.54881
-0.00076 0.00016 0.00335 167.79042 -31.85212 -2.77603 46.10489 2.77629 -5.39227 -13.57427 -10.95902 -0.11044 -28.67596 -11.78693 -0.6627 42.26496 90.94317 6.66397 -0.0463 -32.29288 10.85085 5.16468 38.17165 -114.86996 16.21588 -2.22265 32.24665 0.03241 -7.90361 -20.52876 -7.92507 -4.23953 -2.93822 33.58547 8.31899 2.84208 -26.4775 -9.22921 5.15248 3.53165
-0.00075 0.00018 0.00422 168.15665 -31.85113 -2.72396 46.0944 2.7464 -5.41217 -13.38738 -10.90407 -0.11125 -28.65636 -11.83131 -0.33294 42.31971 90.94827 6.70678 -0.05173 -31.47631 11.08062 4.09728 38.76786 -110.55689 15.37667 -1.625 32.21249 -0.03238 -7.9867 -20.53036 -7.93372 -4.25168 -2.94759 33.65654 8.28881 2.88223 -26.49213 -9.19139 5.13217 3.51424
-0.00072 0.00019 0.00509 168.51958 -31.85298 -2.6726 46.08648 2.71707 -5.43072 -13.20168 -10.84855 -0.11207 -28.63659 -11.87692 -0.00581 42.37605 90.95356 6.74978 -0.05742 -30.66673 11.30772 3.04045 39.37046 -106.31093 14.55026 -1.03641 32.18267 -0.09651 -8.06618 -20.53283 -7.94268 -4.26407 -2.95708 33.73089 8.25811 2.92028 -26.50746 -9.15386 5.11206 3.49706
-0.0007 0.00021 0.00597 168.87869 -31.8593 -2.62207 46.08267 2.68846 -5.44766 -13.01735 -10.79244 -0.11288 -28.61677 -11.92407 0.31841 42.43466 90.95914 6.79315 -0.06345 -29.86485 11.53138 1.99627 39.98177 -102.14666 13.73933 -0.45884 32.15947 -0.15952 -8.1394 -20.53672 -7.95215 -4.27699 -2.96685 33.81054 8.22685 2.95605 -26.52389 -9.1166 5.09212 3.48014
-0.0007 0.00022 0.00683 169.26045 -31.84292 -2.56664 46.05814 2.65581 -5.47398 -12.82486 -10.74005 -0.1137 -28.59775 -11.96245 0.66031 42.48122 90.96322 6.8348 -0.0676 -29.01609 11.77429 0.87842 40.54573 -97.51122 12.83883 0.18233 32.10216 -0.22804 -8.24308 -20.53351 -7.95911 -4.28755 -2.97542 33.86358 8.19902 3.00581 -26.53473 -9.07754 5.07099 3.46166
-0.00063 0.00024 0.00771 169.59394 -31.87248 -2.52161 46.07545 2.6316 -5.48046 -12.64981 -10.67961 -0.11451 -28.57671 -12.01929 0.96424 42.55251 90.97034 6.87983 -0.07567 -28.268 11.9769 -0.08327 41.20764 -93.87096 12.12769 0.68912 32.11425 -0.28551 -8.28605 -20.54461 -7.97106 -4.30266 -2.98626 33.97023 8.16384 3.02549 -26.55688 -9.04243 5.05247 3.44653
-0.00035 0.0003 0.00867 169.79749 -32.04601 -2.50479 46.22462 2.63154 -5.43216 -12.5211 -10.59854 -0.1153 -28.55279 -12.1278 1.16851 42.69822 90.98705 6.93629 -0.09507 -27.78412 12.06539 -0.61815 42.15648 -92.97885 11.93797 0.82511 32.34062 -0.30767 -8.13034 -20.60091 -7.99934 -4.33403 -3.00558 34.24712 8.10939 2.96729 -26.6146 -9.01706 5.04034 3.44017
1e-05 0.00038 0.00965 169.95201 -32.26276 -2.49844 46.41303 2.63976 -5.364 -12.41019 -10.5092 -0.11609 -28.52638 -12.25464 1.33374 42.86756 91.00664 6.99575 -0.11831 -27.4037 12.11396 -0.99557 43.1995 -93.08324 11.93818 0.82647 32.63282 -0.31957 -7.91867 -20.67063 -8.03218 -4.36936 -3.02683 34.57405 8.04745 2.87852 -26.68295 -8.99583 5.03095 3.43724
0.00033 0.00044 0.01061 170.12744 -32.44753 -2.48752 46.57181 2.64354 -5.30516 -12.29212 -10.42258 -0.11688 -28.49936 -12.3725 1.51393 43.02185 91.02404 7.05247 -0.13946 -26.9836 12.18326 -1.44437 44.18866 -92.71974 11.85015 0.89087 32.87862 -0.33956 -7.75474 -20.73018 -8.06111 -4.40029 -3.04565 34.86238 7.98828 2.8001 -26.74338 -8.9735 5.02086 3.43306
